<?xml version="1.0" encoding="UTF-8"?>
<svg width="53px" height="51px" viewBox="0 0 53 51" version="1.1" xmlns="http://www.w3.org/2000/svg" xmlns:xlink="http://www.w3.org/1999/xlink">
    <!-- Generator: Sketch 60.1 (88133) - https://sketch.com -->
    <title>BFI-Logo-bw</title>
    <desc>Created with Sketch.</desc>
    <g id="Page-1" stroke="none" stroke-width="1" fill="none" fill-rule="evenodd">
        <g id="explore-home-alt" transform="translate(-137.000000, -66.000000)" fill="#121212">
            <g id="Nav-/-Nav-1">
                <g id="header">
                    <g id="Group-23">
                        <g id="Group-22" transform="translate(0.000000, 48.366197)">
                            <g id="Nav-/-Inner-/-Persistent" transform="translate(0.000000, 18.000000)">
                                <g id="Group-28" transform="translate(0.000000, 0.000000)">
                                    <g id="Group-6" transform="translate(137.000000, 0.000000)">
                                        <g id="Group-4">
                                            <g id="BFI-Logo-bw">
                                                <path d="M44.0089286,33.566151 C48.9745602,33.566151 53,37.2691658 53,41.8370661 C53,46.4049664 48.9745602,50.1079812 44.0089286,50.1079812 C39.0432969,50.1079812 35.0178571,46.4049664 35.0178571,41.8370661 C35.0178571,37.2691658 39.0432969,33.566151 44.0089286,33.566151 Z M46.375,36.6133303 L42.1160714,36.6133303 L42.1160714,38.1349303 L43.1029715,38.1349303 L43.1029715,45.5382224 L42.1160714,45.5382224 L42.1160714,47.060802 L46.375,47.060802 L46.375,45.5382224 L45.3886136,45.5382224 L45.3886136,38.1349303 L46.375,38.1349303 L46.375,36.6133303 Z" id="Combined-Shape"></path>
                                                <path d="M29.3392857,13.1065189 C37.9638038,13.1065189 44.9553571,19.538071 44.9553571,27.4717925 C44.9553571,35.405514 37.9638038,41.8370661 29.3392857,41.8370661 C20.7147676,41.8370661 13.7232143,35.405514 13.7232143,27.4717925 C13.7232143,19.538071 20.7147676,13.1065189 29.3392857,13.1065189 Z M37.2651999,18.3302548 L22.7142857,18.3302548 L22.7142857,20.574417 L25.1101552,20.574417 L24.991959,35.2402832 L22.9219277,35.2402832 L22.9219277,37.4839529 L30.8762145,37.4839529 L30.8762145,35.2402832 L28.3339308,35.2402832 L28.3924965,28.892496 L34.84058,28.892496 L34.84058,26.4847995 L28.3924965,26.4847995 L28.452127,20.574417 L34.4556436,20.574417 L34.6329379,23.36435 L37.3839286,23.36435 L37.2651999,18.3302548 Z" id="Combined-Shape"></path>
                                                <path d="M12.3035714,0.482490572 C19.0986463,0.482490572 24.6071429,5.54977402 24.6071429,11.8005849 C24.6071429,18.0513958 19.0986463,23.1186793 12.3035714,23.1186793 C5.50849656,23.1186793 0,18.0513958 0,11.8005849 C0,5.54977402 5.50849656,0.482490572 12.3035714,0.482490572 Z M12.3368147,4.37738421 L6.21779911,4.37738421 L6.21779911,6.03265551 L7.84151562,6.03265551 L7.75420759,16.8462785 L6.21779911,16.8462785 L6.21779911,18.5005703 L12.6434576,18.5005703 C16.3503225,18.5005703 18.1923092,16.9466721 18.1923092,14.5465287 C18.1923092,12.3878199 16.2853739,11.0959247 14.2240525,11.1160035 L14.2240525,11.1160035 L14.2240525,11.0763357 C16.1746417,10.9352949 17.2723806,9.48325952 17.2723806,7.84757723 C17.2723806,6.65803463 16.6138437,5.66976911 15.8908906,5.1844514 C14.9475379,4.53997299 13.9387042,4.37738421 12.3368147,4.37738421 L12.3368147,4.37738421 Z M12.5593437,11.8549988 C14.1607009,11.8549988 15.652923,12.5812614 15.652923,14.1542588 C15.652923,15.8487082 14.2043549,16.5353029 12.4294464,16.5353029 L12.4294464,16.5353029 L10.4107143,16.5353029 L10.4543683,11.8549988 Z M12.0557254,5.97829601 C12.8888783,5.97829601 13.3499074,6.01943293 13.7880446,6.24127846 C14.4023951,6.56400739 14.8187054,7.10858185 14.8187054,8.07725837 C14.8187054,9.5292937 13.7438583,10.3363609 12.0775525,10.3363609 L12.0775525,10.3363609 L10.4107143,10.3363609 L10.4549007,5.97829601 Z" id="Combined-Shape"></path>
                                            </g>
                                        </g>
                                    </g>
                                </g>
                            </g>
                        </g>
                    </g>
                </g>
            </g>
        </g>
    </g>
</svg>