<?xml version="1.0" encoding="UTF-8"?>
<svg width="193px" height="24px" viewBox="0 0 193 24" version="1.1" xmlns="http://www.w3.org/2000/svg" xmlns:xlink="http://www.w3.org/1999/xlink">
    <!-- Generator: Sketch 60.1 (88133) - https://sketch.com -->
    <title>logo</title>
    <desc>Created with Sketch.</desc>
    <g id="Page-1" stroke="none" stroke-width="1" fill="none" fill-rule="evenodd">
        <g id="Nav_when-scrolling" transform="translate(-182.000000, -2583.000000)" fill="#FFFFFF" fill-rule="nonzero">
            <g id="logo" transform="translate(182.000000, 2583.000000)">
                <g id="Layer_1">
                    <g id="Group">
                        <g transform="translate(80.059259, 0.000000)">
                            <polygon id="Path" points="0.133432099 0.8 6.00444444 0.8 6.00444444 18.2666667 16.145284 18.2666667 16.145284 23.3333333 0.133432099 23.3333333 0.133432099 0.8"></polygon>
                            <path d="M35.092642,0.8 L43.6322963,23.3333333 L37.6278519,23.3333333 L36.0266667,18.9333333 L27.8873086,18.9333333 L26.2861235,23.3333333 L20.4151111,23.3333333 L28.9547654,0.8 L35.092642,0.8 Z M29.6219259,14 L34.2920494,14 L32.0237037,7.73333333 L29.6219259,14 Z" id="Shape"></path>
                            <polygon id="Path" points="60.0444444 0.8 66.182321 0.8 58.042963 15.3333333 58.042963 23.3333333 52.1719506 23.3333333 52.1719506 15.3333333 44.1660247 0.8 50.5707654 0.8 55.2408889 9.6"></polygon>
                            <polygon id="Path" points="87.1311605 0.8 87.1311605 5.86666667 76.8568889 5.86666667 76.8568889 9.33333333 86.3305679 9.33333333 86.3305679 14.2666667 76.8568889 14.2666667 76.8568889 18.1333333 87.1311605 18.1333333 87.1311605 23.2 70.9858765 23.2 70.9858765 0.8"></polygon>
                            <path d="M98.8731852,15.8666667 L98.8731852,23.3333333 L93.0021728,23.3333333 L93.0021728,0.8 L103.143012,0.8 C107.946568,0.8 111.28237,3.6 111.28237,8.4 C111.28237,11.8666667 109.547753,14.1333333 106.745679,15.2 L112.082963,23.2 L105.54479,23.2 L100.874667,15.7333333 L98.8731852,15.7333333 L98.8731852,15.8666667 Z M98.8731852,11.0666667 L102.475852,11.0666667 C104.610765,11.0666667 105.54479,10 105.54479,8.4 C105.54479,6.8 104.610765,5.73333333 102.475852,5.73333333 L98.8731852,5.73333333 L98.8731852,11.0666667 Z" id="Shape"></path>
                        </g>
                        <g>
                            <path d="M17.8799012,16.9333333 C17.8799012,21.0666667 15.0778272,23.2 10.4077037,23.2 L0,23.2 L0,0.8 L9.60711111,0.8 C14.2772346,0.8 17.0793086,2.93333333 17.0793086,6.93333333 C17.0793086,9.33333333 15.7449877,11.0666667 14.0103704,11.7333333 C16.278716,12.2666667 17.8799012,14.4 17.8799012,16.9333333 Z M8.93995062,9.6 C10.6745679,9.6 11.6085926,8.93333333 11.6085926,7.6 C11.6085926,6.26666667 10.6745679,5.6 8.93995062,5.6 L5.60414815,5.6 L5.60414815,9.73333333 L8.93995062,9.73333333 L8.93995062,9.6 Z M5.60414815,18.4 L9.60711111,18.4 C11.2082963,18.4 12.142321,17.4666667 12.142321,16.2666667 C12.142321,14.9333333 11.2082963,14.1333333 9.60711111,14.1333333 L5.60414815,14.1333333 L5.60414815,18.4 Z" id="Shape"></path>
                            <polygon id="Path" points="23.3506173 23.2 23.3506173 0.8 39.229037 0.8 39.229037 5.86666667 29.2216296 5.86666667 29.2216296 10.4 38.4284444 10.4 38.4284444 15.3333333 29.2216296 15.3333333 29.2216296 23.3333333 23.3506173 23.3333333"></polygon>
                            <g transform="translate(44.890370, 0.000000)" id="Path">
                                <path d="M21.6922469,0.8 L11.8182716,0.8 L11.8182716,7.86666667 L17.689284,11.3333333 L17.689284,5.73333333 L21.1585185,5.73333333 C23.2934321,5.73333333 24.2274568,6.8 24.2274568,8.53333333 C24.2274568,10.2666667 23.2934321,11.3333333 21.1585185,11.3333333 L17.689284,11.3333333 L11.8182716,15.3333333 L11.8182716,23.3333333 L17.689284,23.3333333 L17.689284,16.4 L21.6922469,16.4 C26.6292346,16.4 29.8316049,13.6 29.8316049,8.66666667 C29.8316049,3.46666667 26.4958025,0.8 21.6922469,0.8 Z"></path>
                                <polygon points="0.0762469136 0.8 0.0762469136 23.2 5.94725926 19.2 5.94725926 4.26666667"></polygon>
                            </g>
                        </g>
                    </g>
                </g>
            </g>
        </g>
    </g>
</svg>